<svg width="101" height="31" viewBox="0 0 101 31" fill="none" xmlns="http://www.w3.org/2000/svg">
<path d="M14.3654 23.5H10.1888L5.04853 16.0649V23.5H1.37687V7.4365H5.04853V14.4126L9.95937 7.4365H14.1359L8.72019 15.2617L14.3654 23.5ZM20.7839 23.8213C17.25 23.8213 14.588 21.756 14.588 18.3138V7.4365H18.2597V17.9925C18.2597 19.2088 18.8334 20.2414 20.7839 20.2414C22.7345 20.2414 23.3082 19.2088 23.3082 17.9925V7.4365H26.9799V18.3138C26.9799 21.756 24.3179 23.8213 20.7839 23.8213ZM34.9058 23.8213C31.5325 23.8213 29.3754 22.2149 28.4804 19.8513L31.6472 18.0155C32.2209 19.3464 33.2077 20.2414 35.0206 20.2414C36.7646 20.2414 37.2006 19.553 37.2006 18.9334C37.2006 17.9466 36.2827 17.5565 33.8732 16.891C31.4866 16.2255 29.1459 15.0781 29.1459 12.0031C29.1459 8.90516 31.762 7.11523 34.5387 7.11523C37.1777 7.11523 39.243 8.37736 40.4133 10.741L37.3154 12.5539C36.7646 11.4065 36.0073 10.6951 34.5387 10.6951C33.3913 10.6951 32.8176 11.2688 32.8176 11.9113C32.8176 12.6457 33.2077 13.1505 35.709 13.9078C38.1415 14.6421 40.8723 15.4912 40.8723 18.8875C40.8723 21.9854 38.3939 23.8213 34.9058 23.8213ZM42.2509 7.4365H45.9226V23.5H42.2509V7.4365ZM59.1239 7.4365V10.9705H54.9933V23.5H51.3216V10.9705H47.191V7.4365H59.1239ZM76.4504 7.4365V23.5H72.7788V14.1602L68.6252 20.9757H68.2121L64.0586 14.1602V23.5H60.3869V7.4365H64.0586L68.4187 14.5733L72.7788 7.4365H76.4504ZM84.2652 23.8213C80.8919 23.8213 78.7348 22.2149 77.8398 19.8513L81.0066 18.0155C81.5803 19.3464 82.5671 20.2414 84.38 20.2414C86.124 20.2414 86.56 19.553 86.56 18.9334C86.56 17.9466 85.6421 17.5565 83.2326 16.891C80.846 16.2255 78.5053 15.0781 78.5053 12.0031C78.5053 8.90516 81.1214 7.11523 83.8981 7.11523C86.5371 7.11523 88.6024 8.37736 89.7727 10.741L86.6748 12.5539C86.124 11.4065 85.3667 10.6951 83.8981 10.6951C82.7507 10.6951 82.177 11.2688 82.177 11.9113C82.177 12.6457 82.5671 13.1505 85.0684 13.9078C87.5009 14.6421 90.2317 15.4912 90.2317 18.8875C90.2317 21.9854 87.7533 23.8213 84.2652 23.8213Z" fill="#102E6A" style="fill:#102E6A;fill:color(display-p3 0.0627 0.1804 0.4157);fill-opacity:1;"/>
<path d="M93.0474 15.4688H101" stroke="#266DFC" style="stroke:#266DFC;stroke:color(display-p3 0.1490 0.4286 0.9880);stroke-opacity:1;" stroke-width="1.89349"/>
<path d="M97.0239 11.4932L97.0239 19.4458" stroke="#266DFC" style="stroke:#266DFC;stroke:color(display-p3 0.1490 0.4286 0.9880);stroke-opacity:1;" stroke-width="1.89349"/>
</svg>
